<svg xmlns="http://www.w3.org/2000/svg" viewBox="0 0 33 33" height="33" width="33"><title>circle-11.svg</title><rect fill="none" x="0" y="0" width="33" height="33"></rect><rect x="4" y="4" rx="15" ry="15" width="25" height="25" stroke="#ffffff" style="stroke-linejoin:round;stroke-miterlimit:4;" fill="#ffffff" stroke-width="3"></rect><rect x="4" y="4" width="25" height="25" rx="15" ry="15" fill="#0e0037"></rect><path fill="#19e1c5" transform="translate(11 11)" d="M10,5.5C10,7.9853,7.9853,10,5.5,10S1,7.9853,1,5.5S3.0147,1,5.5,1S10,3.0147,10,5.5z" style="stroke-linejoin:round;stroke-miterlimit:4;" stroke="#19e1c5" stroke-width="5"></path><path fill="#0e0037" transform="translate(11 11)" d="M10,5.5C10,7.9853,7.9853,10,5.5,10S1,7.9853,1,5.5S3.0147,1,5.5,1S10,3.0147,10,5.5z"></path></svg>