<?xml version="1.0" standalone="yes"?><svg xmlns="http://www.w3.org/2000/svg" viewBox="0 0 32 32" height="32" width="32" style="zoom: 16;"><title>longterm.svg</title><rect fill="none" x="0" y="0" width="32" height="32"></rect><rect x="2" y="2" rx="14" ry="14" width="27" height="27" stroke="#ffffff" style="stroke-linejoin:round;stroke-miterlimit:4;" fill="#ffffff" stroke-width="4"></rect><rect x="2" y="2" width="27" height="27" rx="14" ry="14" fill="#110133"></rect><path stroke="#ff9151" style="stroke-linejoin:round;stroke-miterlimit:4;" stroke-width="1" d="M2.515,-1.0425 L7.375,3.8175 l4.84,-4.84 C12.3864,-1.2049 12.6247,-1.3096 12.875,-1.3125 c0.5523,0 1,0.4477 1,1 c0.0047,0.2478 -0.093,0.4866 -0.27,0.66 L8.715,5.1875 l4.89,4.89 c0.1648,0.1612 0.2615,0.3796 0.27,0.61 c0,0.5523 -0.4477,1 -1,1 c-0.2577,0.0107 -0.508,-0.0873 -0.69,-0.27 L7.375,6.5575 l-4.85,4.85 C2.3543,11.5838 2.1203,11.6846 1.875,11.6875 c-0.5523,0 -1,-0.4477 -1,-1 c-0.0047,-0.2478 0.093,-0.4866 0.27,-0.66 L6.035,5.1875 L1.145,0.2975 C0.9802,0.1363 0.8835,-0.0821 0.875,-0.3125 c0,-0.5523 0.4477,-1 1,-1 C2.1154,-1.3096 2.3451,-1.2127 2.515,-1.0425  z " fill="#ff9151" transform="translate(8 8)"></path><path d="M2.64,-1.23 L7.5,3.63 l4.84,-4.84 C12.5114,-1.3924 12.7497,-1.4971 13,-1.5 c0.5523,0 1,0.4477 1,1 c0.0047,0.2478 -0.093,0.4866 -0.27,0.66 L8.84,5 l4.89,4.89 c0.1648,0.1612 0.2615,0.3796 0.27,0.61 c0,0.5523 -0.4477,1 -1,1 c-0.2577,0.0107 -0.508,-0.0873 -0.69,-0.27 L7.5,6.37 l-4.85,4.85 C2.4793,11.3963 2.2453,11.4971 2,11.5 c-0.5523,0 -1,-0.4477 -1,-1 c-0.0047,-0.2478 0.093,-0.4866 0.27,-0.66 L6.16,5 L1.27,0.11 C1.1052,-0.0512 1.0085,-0.2696 1,-0.5 c0,-0.5523 0.4477,-1 1,-1 C2.2404,-1.4971 2.4701,-1.4002 2.64,-1.23  z " transform="translate(8 8)" fill="#ff9151"></path><line stroke="#ff9151" style="stroke-linejoin:round;stroke-miterlimit:4;" stroke-width="1" y1="23.5625px" id="line1" x1="9.0625px" y2="23.4375px" x2="21.125px" transform=""></line></svg>
