<?xml version="1.0" encoding="UTF-8"?>
<svg width="67px" height="77px" viewBox="0 0 67 77" version="1.1" xmlns="http://www.w3.org/2000/svg" xmlns:xlink="http://www.w3.org/1999/xlink">
    <!-- Generator: Sketch 46.2 (44496) - http://www.bohemiancoding.com/sketch -->
    <title>marker-open-selected</title>
    <desc>Created with Sketch.</desc>
    <defs>
        <path d="M34.1421356,34.1421356 C41.9526215,26.3316498 41.9526215,13.6683502 34.1421356,5.85786438 C26.3316498,-1.95262146 13.6683502,-1.95262146 5.85786438,5.85786438 C-1.95262146,13.6683502 -1.95262146,26.3316498 5.85786438,34.1421356 L20,48.2842712 L34.1421356,34.1421356 Z" id="path-1"></path>
        <filter x="-17.5%" y="-10.4%" width="135.0%" height="129.0%" filterUnits="objectBoundingBox" id="filter-2">
            <feOffset dx="0" dy="2" in="SourceAlpha" result="shadowOffsetOuter1"></feOffset>
            <feGaussianBlur stdDeviation="2" in="shadowOffsetOuter1" result="shadowBlurOuter1"></feGaussianBlur>
            <feComposite in="shadowBlurOuter1" in2="SourceAlpha" operator="out" result="shadowBlurOuter1"></feComposite>
            <feColorMatrix values="0 0 0 0 0.839215686   0 0 0 0 0.831372549   0 0 0 0 0.862745098  0 0 0 1 0" type="matrix" in="shadowBlurOuter1"></feColorMatrix>
        </filter>
        <path d="M10,14.4444444 C12.4545989,14.4444444 14.4444444,12.4545989 14.4444444,10 C14.4444444,7.54540111 12.4545989,5.55555556 10,5.55555556 C7.54540111,5.55555556 5.55555556,7.54540111 5.55555556,10 C5.55555556,12.4545989 7.54540111,14.4444444 10,14.4444444 Z M10,18 C5.581722,18 2,14.418278 2,10 C2,5.581722 5.581722,2 10,2 C14.418278,2 18,5.581722 18,10 C18,14.418278 14.418278,18 10,18 Z" id="path-3"></path>
    </defs>
    <g id="_icons" stroke="none" stroke-width="1" fill="none" fill-rule="evenodd">
        <g id="marker-open-selected">
            <g id="marker-selected" transform="translate(14.000000, 15.000000)">
                <g id="Combined-Shape">
                    <use fill="black" fill-opacity="1" filter="url(#filter-2)" xlink:href="#path-1"></use>
                    <use fill="#0F0035" fill-rule="evenodd" xlink:href="#path-1"></use>
                    <path stroke="#FFFFFF" stroke-width="2" d="M20,46.8700577 L33.4350288,33.4350288 C40.8549904,26.0150673 40.8549904,13.9849327 33.4350288,6.56497116 C26.0150673,-0.854990386 13.9849327,-0.854990386 6.56497116,6.56497116 C-0.854990386,13.9849327 -0.854990386,26.0150673 6.56497116,33.4350288 L20,46.8700577 Z"></path>
                </g>
                <g id="status/open" transform="translate(10.000000, 10.000000)">
                    <mask id="mask-4" fill="white">
                        <use xlink:href="#path-3"></use>
                    </mask>
                    <use id="Mask" fill="#0BE6C5" fill-rule="nonzero" xlink:href="#path-3"></use>
                    <g id="status/fill/open" mask="url(#mask-4)" fill-rule="evenodd" fill="#0BE6C5">
                        <rect id="fill" x="0" y="0" width="20" height="20"></rect>
                    </g>
                </g>
            </g>
        </g>
    </g>
</svg>