<?xml version="1.0" encoding="UTF-8"?>
<svg width="42px" height="48px" viewBox="0 0 42 48" version="1.1" xmlns="http://www.w3.org/2000/svg" xmlns:xlink="http://www.w3.org/1999/xlink">
    <!-- Generator: Sketch 46.2 (44496) - http://www.bohemiancoding.com/sketch -->
    <title>marker-open-small</title>
    <desc>Created with Sketch.</desc>
    <defs>
        <circle id="path-1" cx="14.5" cy="16.5" r="14.5"></circle>
        <filter x="-24.1%" y="-17.2%" width="148.3%" height="148.3%" filterUnits="objectBoundingBox" id="filter-2">
            <feOffset dx="0" dy="2" in="SourceAlpha" result="shadowOffsetOuter1"></feOffset>
            <feGaussianBlur stdDeviation="2" in="shadowOffsetOuter1" result="shadowBlurOuter1"></feGaussianBlur>
            <feComposite in="shadowBlurOuter1" in2="SourceAlpha" operator="out" result="shadowBlurOuter1"></feComposite>
            <feColorMatrix values="0 0 0 0 0.839215686   0 0 0 0 0.831372549   0 0 0 0 0.862745098  0 0 0 1 0" type="matrix" in="shadowBlurOuter1"></feColorMatrix>
        </filter>
        <path d="M8.5,12.2777778 C10.5864091,12.2777778 12.2777778,10.5864091 12.2777778,8.5 C12.2777778,6.41359095 10.5864091,4.72222222 8.5,4.72222222 C6.41359095,4.72222222 4.72222222,6.41359095 4.72222222,8.5 C4.72222222,10.5864091 6.41359095,12.2777778 8.5,12.2777778 Z M8.5,15.3 C4.7444637,15.3 1.7,12.2555363 1.7,8.5 C1.7,4.7444637 4.7444637,1.7 8.5,1.7 C12.2555363,1.7 15.3,4.7444637 15.3,8.5 C15.3,12.2555363 12.2555363,15.3 8.5,15.3 Z" id="path-3"></path>
    </defs>
    <g id="_icons" stroke="none" stroke-width="1" fill="none" fill-rule="evenodd">
        <g id="marker-open-small">
            <g id="marker-small" transform="translate(6.000000, 9.000000)">
                <g id="fill">
                    <use fill="black" fill-opacity="1" filter="url(#filter-2)" xlink:href="#path-1"></use>
                    <use fill="#0F0035" fill-rule="evenodd" xlink:href="#path-1"></use>
                    <circle stroke="#FFFFFF" stroke-width="2" cx="14.5" cy="16.5" r="13.5"></circle>
                </g>
                <g id="status/open" transform="translate(6.000000, 8.000000)">
                    <mask id="mask-4" fill="white">
                        <use xlink:href="#path-3"></use>
                    </mask>
                    <use id="Mask" fill="#0BE6C5" fill-rule="nonzero" xlink:href="#path-3"></use>
                    <g id="status/fill/open" mask="url(#mask-4)" fill-rule="evenodd" fill="#0BE6C5">
                        <rect id="fill" x="0" y="0" width="17" height="17"></rect>
                    </g>
                </g>
            </g>
        </g>
    </g>
</svg>