<?xml version="1.0" encoding="UTF-8"?>
<svg width="67px" height="77px" viewBox="0 0 67 77" version="1.1" xmlns="http://www.w3.org/2000/svg" xmlns:xlink="http://www.w3.org/1999/xlink">
    <!-- Generator: Sketch 46.2 (44496) - http://www.bohemiancoding.com/sketch -->
    <title>marker-long-term-selected</title>
    <desc>Created with Sketch.</desc>
    <defs>
        <path d="M48.1421356,48.1421356 C55.9526215,40.3316498 55.9526215,27.6683502 48.1421356,19.8578644 C40.3316498,12.0473785 27.6683502,12.0473785 19.8578644,19.8578644 C12.0473785,27.6683502 12.0473785,40.3316498 19.8578644,48.1421356 L34,62.2842712 L48.1421356,48.1421356 Z" id="path-1"></path>
        <filter x="-17.5%" y="-10.4%" width="135.0%" height="129.0%" filterUnits="objectBoundingBox" id="filter-2">
            <feOffset dx="0" dy="2" in="SourceAlpha" result="shadowOffsetOuter1"></feOffset>
            <feGaussianBlur stdDeviation="2" in="shadowOffsetOuter1" result="shadowBlurOuter1"></feGaussianBlur>
            <feComposite in="shadowBlurOuter1" in2="SourceAlpha" operator="out" result="shadowBlurOuter1"></feComposite>
            <feColorMatrix values="0 0 0 0 0.839215686   0 0 0 0 0.831372549   0 0 0 0 0.862745098  0 0 0 1 0" type="matrix" in="shadowBlurOuter1"></feColorMatrix>
        </filter>
        <path d="M36.5882353,32 L41,27.5882353 L38.4117647,25 L34,29.4117647 L29.5882353,25 L27,27.5882353 L31.4117647,32 L27,36.4117647 L29.5882353,39 L34,34.5882353 L38.4117647,39 L41,36.4117647 L36.5882353,32 Z M26,40 L42,40 L42,43 L26,43 L26,40 Z" id="path-3"></path>
    </defs>
    <g id="_icons" stroke="none" stroke-width="1" fill="none" fill-rule="evenodd">
        <g id="marker-long-term-selected">
            <g id="Combined-Shape">
                <use fill="black" fill-opacity="1" filter="url(#filter-2)" xlink:href="#path-1"></use>
                <use fill="#0F0035" fill-rule="evenodd" xlink:href="#path-1"></use>
                <path stroke="#FFFFFF" stroke-width="2" d="M34,60.8700577 L47.4350288,47.4350288 C54.8549904,40.0150673 54.8549904,27.9849327 47.4350288,20.5649712 C40.0150673,13.1450096 27.9849327,13.1450096 20.5649712,20.5649712 C13.1450096,27.9849327 13.1450096,40.0150673 20.5649712,47.4350288 L34,60.8700577 Z"></path>
            </g>
            <mask id="mask-4" fill="white">
                <use xlink:href="#path-3"></use>
            </mask>
            <use id="Mask" fill="#FF9159" fill-rule="nonzero" xlink:href="#path-3"></use>
        </g>
    </g>
</svg>