<svg id="Layer_1" data-name="Layer 1" xmlns="http://www.w3.org/2000/svg" viewBox="0 0 32 32"><defs><style>.cls-1{fill:#0f0035;}</style></defs><title>bars</title><path class="cls-1" d="M25.43,10.5a.79.79,0,0,1-.79.79H7.35a.79.79,0,0,1-.79-.79V8.92a.79.79,0,0,1,.79-.79H24.65a.79.79,0,0,1,.79.79Zm0,6.29a.79.79,0,0,1-.79.79H7.35a.79.79,0,0,1-.79-.79V15.21a.79.79,0,0,1,.79-.79H24.65a.79.79,0,0,1,.79.79Zm0,6.29a.79.79,0,0,1-.79.79H7.35a.79.79,0,0,1-.79-.79V21.5a.79.79,0,0,1,.79-.79H24.65a.79.79,0,0,1,.79.79Z"/></svg>