<?xml version="1.0" encoding="UTF-8"?>
<svg width="39px" height="35px" viewBox="0 0 39 35" version="1.1" xmlns="http://www.w3.org/2000/svg" xmlns:xlink="http://www.w3.org/1999/xlink">
    <!-- Generator: Sketch 46.1 (44463) - http://www.bohemiancoding.com/sketch -->
    <title>search-bg</title>
    <desc>Created with Sketch.</desc>
    <defs></defs>
    <g id="Page-1" stroke="none" stroke-width="1" fill="none" fill-rule="evenodd">
        <g id="search-bg">
            <rect id="Rectangle" fill="#0F0035" x="0" y="0" width="39" height="35"></rect>
            <path d="M28.65,28.22 C28.2315086,28.2206612 27.8307698,28.050979 27.54,27.75 L23.33,23.55 C19.6465697,26.0857366 14.6375546,25.3958585 11.776741,21.958801 C8.91592744,18.5217434 9.1465263,13.4707051 12.3086157,10.3086157 C15.4707051,7.1465263 20.5217434,6.91592744 23.958801,9.77674101 C27.3958585,12.6375546 28.0857366,17.6465697 25.55,21.33 L29.76,25.54 C30.2101924,25.9902959 30.3438281,26.6679095 30.0983051,27.2554111 C29.852782,27.8429126 29.2767292,28.22394 28.64,28.22 L28.65,28.22 Z M18.43,10.92 C15.3924339,10.92 12.93,13.3824339 12.93,16.42 C12.93,19.4575661 15.3924339,21.92 18.43,21.92 C21.4675661,21.92 23.93,19.4575661 23.93,16.42 C23.9244963,13.3847165 21.4652835,10.9255037 18.43,10.92 Z" id="Shape" fill="#FFFFFF" fill-rule="nonzero"></path>
        </g>
    </g>
</svg>