<?xml version="1.0" encoding="UTF-8"?>
<svg width="42px" height="48px" viewBox="0 0 42 48" version="1.1" xmlns="http://www.w3.org/2000/svg" xmlns:xlink="http://www.w3.org/1999/xlink">
    <!-- Generator: Sketch 46.2 (44496) - http://www.bohemiancoding.com/sketch -->
    <title>status-open</title>
    <desc>Created with Sketch.</desc>
    <defs>
        <path d="M8,11.5555556 C9.96367911,11.5555556 11.5555556,9.96367911 11.5555556,8 C11.5555556,6.03632089 9.96367911,4.44444444 8,4.44444444 C6.03632089,4.44444444 4.44444444,6.03632089 4.44444444,8 C4.44444444,9.96367911 6.03632089,11.5555556 8,11.5555556 Z M8,14.4 C4.4653776,14.4 1.6,11.5346224 1.6,8 C1.6,4.4653776 4.4653776,1.6 8,1.6 C11.5346224,1.6 14.4,4.4653776 14.4,8 C14.4,11.5346224 11.5346224,14.4 8,14.4 Z" id="path-1"></path>
    </defs>
    <g id="_icons" stroke="none" stroke-width="1" fill="none" fill-rule="evenodd">
        <g id="status-open">
            <g id="status/open" transform="translate(13.000000, 16.000000)">
                <mask id="mask-2" fill="white">
                    <use xlink:href="#path-1"></use>
                </mask>
                <use id="Mask" fill="#0BE6C5" fill-rule="nonzero" xlink:href="#path-1"></use>
                <g id="status/fill/open" mask="url(#mask-2)" fill-rule="evenodd" fill="#0BE6C5">
                    <rect id="fill" x="0" y="0" width="16" height="16"></rect>
                </g>
            </g>
        </g>
    </g>
</svg>