<svg xmlns="http://www.w3.org/2000/svg" viewBox="0 0 37 37" height="37" width="37"><title>circle-15.svg</title><rect fill="none" x="0" y="0" width="37" height="37"></rect><rect x="4" y="4" rx="17" ry="17" width="29" height="29" stroke="#ffffff" style="stroke-linejoin:round;stroke-miterlimit:4;" fill="#ffffff" stroke-width="3"></rect><rect x="4" y="4" width="29" height="29" rx="17" ry="17" fill="#0e0037"></rect><path fill="#19e1c5" transform="translate(11 11)" d="M14,7.5c0,3.5899-2.9101,6.5-6.5,6.5S1,11.0899,1,7.5S3.9101,1,7.5,1S14,3.9101,14,7.5z" style="stroke-linejoin:round;stroke-miterlimit:4;" stroke="#19e1c5" stroke-width="5"></path><path fill="#0e0037" transform="translate(11 11)" d="M14,7.5c0,3.5899-2.9101,6.5-6.5,6.5S1,11.0899,1,7.5S3.9101,1,7.5,1S14,3.9101,14,7.5z"></path></svg>